<?xml version="1.0" encoding="UTF-8"?>
<svg xmlns="http://www.w3.org/2000/svg" width="32" height="32" viewBox="0 0 32 32" fill="none">
  <rect x="0.5" y="0.5" width="31" height="31" rx="15.5" fill="white"></rect>
  <rect x="0.5" y="0.5" width="31" height="31" rx="15.5" stroke="#D72638"></rect>
  <path d="M20.7287 15.1177C20.4364 15.1893 20.1282 15.1734 19.8596 15.0461C18.9194 14.6165 19.3618 13.4708 19.1011 12.7547C18.6191 11.3942 17.0073 10.8611 15.5852 11.1237H15.5694C14.5106 11.3305 13.5704 11.975 13.286 13.057C13.286 13.065 13.286 13.073 13.286 13.0889C13.1754 13.5583 13.286 14.0675 13.5546 14.4573C13.3334 14.8472 13.1912 15.2928 13.1596 15.7701C12.9937 15.6826 12.8356 15.5792 12.6855 15.4598C11.0658 14.1232 11.1922 12.1819 12.164 10.7895C12.3458 10.527 12.567 10.2803 12.8198 10.0655H12.8277C12.8277 10.0496 12.8435 10.0416 12.8435 10.0416C12.8435 10.0416 12.8514 10.0337 12.8593 10.0337C14.803 8.35491 18.5164 7.92527 20.8867 10.2405C22.2615 11.5772 22.6012 14.6403 20.7287 15.1257V15.1177Z" fill="#D72638"></path>
  <path d="M15.8065 15.7304C15.7196 16.1918 14.3843 16.335 13.294 15.8418C13.2466 15.8179 13.1992 15.802 13.1597 15.7781C13.1992 15.3007 13.3335 14.8552 13.5547 14.4653C13.6337 14.5767 13.7206 14.6802 13.8233 14.7677C13.9577 14.887 14.1157 14.9904 14.2895 15.0541C14.9927 15.3166 15.9013 15.261 15.8065 15.7383V15.7304Z" fill="#D72638"></path>
  <path d="M19.8439 21.1962C18.2558 23.4796 13.8233 24.3946 11.1133 21.7531C9.73854 20.4165 9.3988 17.3533 11.2713 16.868C11.5637 16.7964 11.8718 16.8123 12.1404 16.9396C13.0886 17.3692 12.6382 18.5149 12.8989 19.231C13.3809 20.5915 14.9927 21.1246 16.4149 20.862C16.4149 20.862 16.4149 20.862 16.4307 20.862C16.4307 20.862 16.4307 20.862 16.4465 20.862C17.4973 20.6552 18.4375 20.0107 18.714 18.9366C18.714 18.9287 18.714 18.9207 18.714 18.9048C18.8247 18.4433 18.714 17.95 18.4612 17.5602C18.6745 17.1703 18.8089 16.7327 18.8405 16.2554C18.8405 16.2394 18.8405 16.2315 18.8405 16.2156C19.0064 16.3031 19.1644 16.4065 19.3066 16.5259C20.9263 17.8625 20.7999 19.8038 19.8281 21.1962H19.8439Z" fill="#D72638"></path>
  <path d="M18.8482 16.2157C18.8482 16.2317 18.8482 16.2396 18.8482 16.2555C18.7771 16.1919 18.7218 16.1601 18.7139 16.1521C18.7613 16.176 18.8087 16.1919 18.8482 16.2157Z" fill="#D72638"></path>
  <path d="M18.8485 16.2554C18.8169 16.7249 18.6826 17.1704 18.4693 17.5603C18.3902 17.4409 18.2954 17.3295 18.1848 17.2261C18.0505 17.1068 17.8925 17.0033 17.7187 16.9397C17.0155 16.6771 16.1069 16.7408 16.2017 16.2554C16.2886 15.794 17.6239 15.6508 18.7142 16.1441C18.7221 16.1441 18.7774 16.1838 18.8485 16.2475V16.2554Z" fill="#D72638"></path>
  <path d="M18.8564 16.0327C18.8564 16.0963 18.8564 16.16 18.8564 16.2157C18.8564 16.2316 18.8564 16.2396 18.8564 16.2555C18.8248 16.7249 18.6905 17.1704 18.4772 17.5603C17.9794 18.4673 17.0629 19.0799 16.0042 19.0799C14.424 19.0799 13.144 17.7194 13.144 16.0327C13.144 14.346 13.144 15.8577 13.1519 15.7781C13.1914 15.3007 13.3258 14.8552 13.547 14.4653C14.0448 13.5822 14.9613 12.9934 15.9963 12.9934C17.5765 12.9934 18.8564 14.3539 18.8564 16.0406V16.0327Z" fill="#D72638"></path>
</svg>
